<?xml version="1.0" encoding="utf-8"?>
<!-- Generator: Adobe Illustrator 23.0.6, SVG Export Plug-In . SVG Version: 6.00 Build 0)  -->
<svg version="1.1" id="Layer_1" xmlns="http://www.w3.org/2000/svg" xmlns:xlink="http://www.w3.org/1999/xlink" x="0px" y="0px"
	 viewBox="0 0 130 106" style="enable-background:new 0 0 130 106;" xml:space="preserve">
<style type="text/css">
	.st0{fill:#B1B3B6;}
	.st1{font-family:sans-serif;}
	.st2{font-size:12.6183px;}
	.st3{fill:#144069;}
	.st4{fill:none;stroke:#FFFFFF;stroke-miterlimit:10;}
</style>
<g>
	<text transform="matrix(1 0 0 1 4.8145 36.4648)" class="st0 st1 st2">CORE</text>
	<text transform="matrix(1 0 0 1 71.6396 52.105)" class="st3 st1 st2">COMMON</text>
	<text transform="matrix(1 0 0 1 36.8682 97.8237)" class="st0 st1 st2">LEADERSHIP</text>
	<g>
		<path class="st0" d="M47.3,28.2c-3.9-10.8-15.9-16.4-26.8-12.3c0,0,0,0,0,0L17,6.1c0,0,0,0,0,0c16.3-6,34.3,2.2,40.2,18.5
			c2,5.5,2.4,11.3,1.3,16.7l-10.3-1.9C48.9,35.8,48.7,31.9,47.3,28.2"/>
		<path class="st4" d="M47.3,28.2c-3.9-10.8-15.9-16.4-26.8-12.3c0,0,0,0,0,0L17,6.1c0,0,0,0,0,0c16.3-6,34.3,2.2,40.2,18.5
			c2,5.5,2.4,11.3,1.3,16.7l-10.3-1.9C48.9,35.8,48.7,31.9,47.3,28.2z"/>
		<path class="st0" d="M115.1,88.1c-3.6-10.9-15.3-16.8-26.2-13.2c-0.1,0-0.1,0-0.2,0.1c0,0,0,0,0,0L85.5,65c0,0,0,0,0,0
			c16.5-5.5,34.2,3.3,39.6,19.7c1.8,5.6,2,11.4,0.8,16.8l-10.2-2.2C116.5,95.7,116.4,91.8,115.1,88.1"/>
		<path class="st4" d="M115.1,88.1c-3.6-10.9-15.3-16.8-26.2-13.2c-0.1,0-0.1,0-0.2,0.1c0,0,0,0,0,0L85.5,65c0,0,0,0,0,0
			c16.5-5.5,34.2,3.3,39.6,19.7c1.8,5.6,2,11.4,0.8,16.8l-10.2-2.2C116.5,95.7,116.4,91.8,115.1,88.1z"/>
		<path class="st3" d="M75.1,65.7c3.6,0.7,7.2,0.4,10.4-0.7l3.2,9.9C83.8,76.6,78.5,77,73.1,76c-17-3.2-28.1-19.5-24.9-36.6
			l10.3,1.9C56.3,52.7,63.7,63.6,75.1,65.7"/>
		<path class="st4" d="M75.1,65.7c3.6,0.7,7.2,0.4,10.4-0.7l3.2,9.9C83.8,76.6,78.5,77,73.1,76c-17-3.2-28.1-19.5-24.9-36.6
			l10.3,1.9C56.3,52.7,63.7,63.6,75.1,65.7z"/>
	</g>
</g>
</svg>
