<?xml version="1.0" encoding="utf-8"?>
<!-- Generator: Adobe Illustrator 23.0.6, SVG Export Plug-In . SVG Version: 6.00 Build 0)  -->
<svg version="1.1" id="Layer_1" xmlns="http://www.w3.org/2000/svg" xmlns:xlink="http://www.w3.org/1999/xlink" x="0px" y="0px"
	 viewBox="0 0 720 432" style="enable-background:new 0 0 720 432;" xml:space="preserve">
<style type="text/css">
	.st0{clip-path:url(#SVGID_2_);}
	.st1{clip-path:url(#SVGID_4_);fill:#FFFFFF;}
	.st2{clip-path:url(#SVGID_2_);fill:#FFFFFF;}
	.st3{clip-path:url(#SVGID_6_);fill:#FFFFFF;}
	.st4{clip-path:url(#SVGID_6_);}
	.st5{clip-path:url(#SVGID_8_);fill:#5987C7;}
	.st6{clip-path:url(#SVGID_10_);fill:#F57F29;}
	.st7{clip-path:url(#SVGID_10_);fill:#5A87C6;}
	.st8{clip-path:url(#SVGID_10_);}
	.st9{fill:#FFFFFF;}
	.st10{font-family:sans-serif;}
	.st11{font-size:20.3502px;}
	.st12{font-size:21.4213px;}
	.st13{font-size:19.4738px;}
	.st14{font-size:20.3501px;}
	.st15{font-size:21.4212px;}
	.st16{font-size:19.4739px;}
	.st17{font-size:20.3503px;}
	.st18{font-family:sans-serif;}
	.st19{font-size:25.6177px;}
	.st20{font-size:25.6178px;}
	.st21{clip-path:url(#SVGID_12_);fill:url(#SVGID_13_);}
	.st22{clip-path:url(#SVGID_15_);fill:none;stroke:#144069;stroke-width:2.78;stroke-miterlimit:10;}
	.st23{clip-path:url(#SVGID_17_);fill:url(#SVGID_18_);}
	.st24{clip-path:url(#SVGID_20_);fill:none;stroke:#144069;stroke-width:2.78;stroke-miterlimit:10;}
	.st25{clip-path:url(#SVGID_22_);fill:url(#SVGID_23_);}
	.st26{clip-path:url(#SVGID_25_);fill:none;stroke:#144069;stroke-width:2.78;stroke-miterlimit:10;}
	.st27{font-family:sans-serif; font-weight:900;}
	.st28{font-size:26.3503px;}
</style>
<g>
	<defs>
		<rect id="SVGID_1_" width="720" height="432"/>
	</defs>
	<clipPath id="SVGID_2_">
		<use xlink:href="#SVGID_1_"  style="overflow:visible;"/>
	</clipPath>
	<g class="st0">
		<defs>
			<rect id="SVGID_3_" width="720" height="432"/>
		</defs>
		<clipPath id="SVGID_4_">
			<use xlink:href="#SVGID_3_"  style="overflow:visible;"/>
		</clipPath>
		<path class="st1" d="M675.6,412.2c-0.1,0.4-0.7,0.8-1.2,0.8c-0.4,0-0.6-0.2-0.5-0.5c0.1-0.5,0.7-0.9,1.2-0.9
			C675.5,411.6,675.7,411.9,675.6,412.2 M672.4,414c0.3,0.2,0.8,0.4,1.3,0.4c0.5,0,0.9-0.1,1.2-0.3c0.3-0.2,0.5-0.4,0.7-0.8l1.2-2
			h-0.6l-0.3,0.4c-0.1-0.3-0.3-0.5-0.8-0.5c-0.8,0-1.7,0.6-2,1.4c-0.2,0.6,0.3,0.9,0.8,0.9c0.4,0,0.7-0.1,1.1-0.4l-0.1,0.2
			c-0.1,0.2-0.3,0.4-0.4,0.5c-0.2,0.1-0.4,0.2-0.8,0.2c-0.4,0-0.7-0.1-1-0.3L672.4,414z M669.6,413.7h0.6l0.8-1.4
			c0.2-0.4,0.6-0.6,1-0.6c0.3,0,0.5,0.1,0.4,0.4c0,0.1-0.1,0.2-0.1,0.2l-0.8,1.4h0.6l0.8-1.4c0.1-0.1,0.2-0.3,0.2-0.4
			c0.1-0.5-0.1-0.7-0.7-0.7c-0.4,0-0.7,0.2-1,0.4l0.2-0.3H671L669.6,413.7z M669.8,410.8h0.7l0.3-0.5h-0.7L669.8,410.8z
			 M668.2,413.7h0.6l1.5-2.5h-0.6L668.2,413.7z M666.1,413.7h0.6l2.6-2.5h-0.7l-1.8,1.8l0.3-1.8h-0.7L666.1,413.7z M665.1,412.3
			c-0.1,0.4-0.7,0.9-1.2,0.9c-0.4,0-0.7-0.2-0.5-0.7c0.1-0.4,0.7-0.9,1.2-0.9C665,411.6,665.2,411.9,665.1,412.3 M662.7,412.6
			c-0.2,0.7,0.2,1.1,1,1.1c0.9,0,1.8-0.7,2.1-1.5c0.2-0.7-0.2-1.1-1-1.1C663.9,411.1,662.9,411.8,662.7,412.6 M657.8,413.7h0.7
			l1.4-2.3l0.3,1.5h0l2.1-1.5l-1.4,2.4h0.7l1.9-3.3h-0.8l-2,1.6l-0.2-1.6h-0.7L657.8,413.7z M653.3,413.7h0.6l0.8-1.4
			c0.2-0.4,0.6-0.6,1-0.6c0.3,0,0.5,0.1,0.4,0.4c0,0.1-0.1,0.2-0.1,0.2l-0.8,1.4h0.6l0.8-1.4c0.1-0.1,0.2-0.3,0.2-0.4
			c0.1-0.5-0.1-0.7-0.7-0.7c-0.4,0-0.7,0.2-1,0.4l0.7-1.3h-0.6L653.3,413.7z M652.6,412.7c-0.2,0.3-0.6,0.6-1,0.6
			c-0.3,0-0.4-0.1-0.4-0.3c0.1-0.3,0.4-0.4,0.8-0.4c0.3,0,0.5,0,0.6,0.1L652.6,412.7z M650.6,413c-0.1,0.4,0.2,0.7,0.7,0.7
			c0.4,0,0.7-0.1,1-0.4l-0.2,0.3h0.6l0.8-1.4c0.1-0.1,0.1-0.2,0.2-0.4c0.1-0.5-0.2-0.8-0.9-0.8c-0.4,0-0.7,0.1-1.1,0.2l0,0.5
			c0.2-0.1,0.5-0.1,0.8-0.1c0.4,0,0.6,0.1,0.5,0.4c0,0.1,0,0.1-0.1,0.2l0,0.1c-0.2-0.1-0.5-0.1-0.8-0.1
			C651.4,412.1,650.7,412.5,650.6,413 M648.7,413.2c-0.1,0.3,0.1,0.5,0.6,0.5c0.2,0,0.4,0,0.6-0.1l0.3-0.5c-0.2,0.1-0.3,0.1-0.4,0.1
			c-0.2,0-0.3-0.1-0.2-0.2c0,0,0-0.1,0.1-0.1l0.7-1.2h0.8l0.3-0.5h-0.8l0.4-0.7h-0.6l-0.4,0.7h-0.4l-0.3,0.5h0.4l-0.7,1.3
			C648.8,413,648.7,413.1,648.7,413.2 M645,412.6c-0.2,0.7,0.2,1.1,1.1,1.1c0.5,0,1-0.1,1.3-0.4c0.3-0.2,0.6-0.5,0.9-1l1.2-2h-0.7
			l-1.1,1.9c-0.2,0.3-0.4,0.5-0.6,0.7c-0.2,0.2-0.5,0.2-0.8,0.2c-0.5,0-0.7-0.3-0.6-0.6c0-0.1,0.1-0.3,0.2-0.4l1.1-1.8h-0.7l-1,1.7
			C645.1,412.3,645.1,412.5,645,412.6 M642.6,412.2c-0.1,0.4-0.7,0.8-1.2,0.8c-0.4,0-0.6-0.2-0.5-0.5c0.1-0.5,0.7-0.9,1.2-0.9
			C642.5,411.6,642.7,411.9,642.6,412.2 M639.4,414c0.3,0.2,0.8,0.4,1.3,0.4c0.5,0,0.9-0.1,1.2-0.3c0.3-0.2,0.5-0.4,0.7-0.8l1.2-2
			h-0.6l-0.3,0.4c-0.1-0.3-0.3-0.5-0.8-0.5c-0.8,0-1.7,0.6-2,1.4c-0.2,0.6,0.3,0.9,0.8,0.9c0.4,0,0.7-0.1,1.1-0.4l-0.1,0.2
			c-0.1,0.2-0.3,0.4-0.4,0.5c-0.2,0.1-0.4,0.2-0.8,0.2c-0.4,0-0.7-0.1-1-0.3L639.4,414z M636.6,413.7h0.6l0.8-1.4
			c0.2-0.4,0.6-0.6,1-0.6c0.3,0,0.5,0.1,0.4,0.4c0,0.1-0.1,0.2-0.1,0.2l-0.8,1.4h0.6l0.8-1.4c0.1-0.1,0.2-0.3,0.2-0.4
			c0.1-0.5-0.1-0.7-0.7-0.7c-0.4,0-0.7,0.2-1,0.4l0.2-0.3H638L636.6,413.7z M636.8,410.8h0.7l0.3-0.5h-0.7L636.8,410.8z
			 M635.2,413.7h0.6l1.5-2.5h-0.6L635.2,413.7z M634.8,412.2c-0.2,0.5-0.7,1-1.3,1c-0.4,0-0.6-0.3-0.5-0.6c0.1-0.5,0.8-1,1.3-1
			C634.7,411.6,634.9,411.9,634.8,412.2 M631.3,414.4h0.6l0.7-1.2c0.1,0.3,0.3,0.5,0.8,0.5c0.8,0,1.8-0.6,2-1.5
			c0.2-0.7-0.2-1.1-0.8-1.1c-0.4,0-0.7,0.2-1,0.4l0.2-0.3h-0.6L631.3,414.4z M630,412.2c0.2-0.4,0.7-0.6,1.1-0.6
			c0.4,0,0.5,0.2,0.4,0.5c0,0.1,0,0.1-0.1,0.2H630z M630.3,413.3c-0.5,0-0.7-0.3-0.6-0.6h2.1c0.1-0.2,0.2-0.4,0.3-0.5
			c0.2-0.5-0.1-1-0.9-1c-1,0-1.9,0.8-2.1,1.5c-0.2,0.7,0.2,1.1,1,1.1c0.5,0,0.9-0.2,1.2-0.3l-0.2-0.4
			C630.9,413.2,630.6,413.3,630.3,413.3 M626.9,412.2c0.2-0.4,0.7-0.6,1.1-0.6c0.4,0,0.5,0.2,0.4,0.5c0,0.1,0,0.1-0.1,0.2H626.9z
			 M627.2,413.3c-0.5,0-0.7-0.3-0.6-0.6h2.1c0.1-0.2,0.2-0.4,0.3-0.5c0.2-0.5-0.1-1-0.9-1c-1,0-1.9,0.8-2.1,1.5
			c-0.2,0.7,0.2,1.1,1,1.1c0.5,0,0.9-0.2,1.2-0.3L628,413C627.7,413.2,627.5,413.3,627.2,413.3 M624.1,410.4h0.7l-1,1.7l2.7-1.7h0.9
			l-2.3,1.4l0.4,1.9h-0.7l-0.3-1.5l-1.1,0.7l-0.5,0.9h-0.7L624.1,410.4z"/>
	</g>
	<polygon class="st2" points="606.3,409.9 594.6,409.9 592.2,413.7 603.7,413.7 	"/>
	<polygon class="st2" points="604.6,413.7 611.3,413.7 613.9,409.9 607.2,409.9 	"/>
	<polygon class="st2" points="614.8,409.9 612.2,413.7 617.8,413.7 620.2,409.9 	"/>
	<g class="st0">
		<defs>
			<rect id="SVGID_5_" width="720" height="432"/>
		</defs>
		<clipPath id="SVGID_6_">
			<use xlink:href="#SVGID_5_"  style="overflow:visible;"/>
		</clipPath>
		<path class="st3" d="M668.3,398.1c-1.6,2.5-5.9,4.5-9.7,4.5c-1.6,0-2.8-0.4-3.5-1c-0.8-0.8-0.8-1.9,0-3.1c1.6-2.5,5.9-4.5,9.7-4.5
			c1.6,0,2.8,0.4,3.5,1C669,395.8,669,396.9,668.3,398.1 M692.5,390.2H689h-22c-4.6,0-9.8,0.9-13.7,3.4c-0.9-2.5-4.2-3.4-8.7-3.4
			h-24.1L618,394h5.1l-5.6,8.9h-11.8l8.1-12.6H607l-9,13.9c-0.8,1.3,0.5,2.9,2.3,2.9h21.1l8.5-13h12.4c1.6,0,2.8,0.4,3.5,1
			c0.8,0.8,0.8,1.9,0,3.1c-1.6,2.5-5.9,4.5-9.7,4.5l-1.2,0l4.6-7.1h-6.8l-7.4,11.5h8.6c4.6,0,9.7-1.6,13.7-4.1
			c0.9,2.5,4.2,4.1,8.8,4c7.1,0,15.4-3.8,18.4-8.5c1-1.6,1.3-3.2,1-4.5h4.3l-8.3,13l6.8,0l8.3-13h11.9L692.5,390.2z"/>
		<g class="st4">
			<defs>
				<rect id="SVGID_7_" x="233.4" y="142.2" width="253.3" height="253.3"/>
			</defs>
			<clipPath id="SVGID_8_">
				<use xlink:href="#SVGID_7_"  style="overflow:visible;"/>
			</clipPath>
			<polygon class="st5" points="402.5,169 403.2,178.2 395.4,174.8 			"/>
			<polygon class="st5" points="452.9,226.5 462,227.2 456.2,234.3 			"/>
			<polygon class="st5" points="403.6,370.8 396.5,365.1 404.3,361.7 			"/>
			<polygon class="st5" points="462.1,312 453,312.8 456.3,305 			"/>
			<polygon class="st5" points="318.6,169.5 325.6,175.4 317.7,178.6 			"/>
			<polygon class="st5" points="259.7,228.9 268.8,228.1 265.5,236 			"/>
			<polygon class="st5" points="319.7,371 319,361.8 326.8,365.2 			"/>
			<polygon class="st5" points="269.8,313.4 260.7,312.7 266.5,305.6 			"/>
			<path class="st5" d="M272,306.7l2.7-1.1l0.5-0.2c-3.5-8.5-5.7-17.4-6.6-26.5l-3.6-0.9C265.9,287.8,268.2,297.5,272,306.7
				 M282.9,346.2l8.4-8.5l0,0l0,0v0l0,0l9.4-9.5l6-6.1l48.8-49.3l0,0l0,0l-36.6,18.5l-26.1,39.3l0,0l-3.9,5.8l-7.6,11.5L282.9,346.2
				z M326.8,354.6c5.2,2.1,10.7,3.8,16.3,4.9l0.1,0c1.3,0.3,2.6,0.5,4,0.7l0.6,0.1c1.1,0.2,2.2,0.3,3.3,0.4l-12.9-48.3l-37.5,25.9
				C308.5,345.3,317.3,350.7,326.8,354.6 M324,359l0.1-0.2l1.2-3c-9.5-4-18.2-9.5-26-16.5l-2.9,2C304.6,348.8,313.9,354.7,324,359
				 M359.8,386.9l-0.5-114.5l-19.7,38.9l13.2,49.7l1.9,6.9l0,0L359.8,386.9z M368.4,366.2c10.2-0.7,20.1-3.1,29.4-6.9l-1.4-3.2
				c-8.7,3.6-17.8,5.8-27.2,6.6l-0.6,2.3L368.4,366.2z M446.3,303.2L446.3,303.2C446.3,303.2,446.3,303.2,446.3,303.2L446.3,303.2
				c2.5-6.3,4.3-13,5.3-19.7c0,0,0.4-2.8,0.5-4.4l0-0.2c0-0.4,0.1-0.8,0.1-1.2l-49.3,13.1l27,39.4
				C436.9,322.1,442.4,313.1,446.3,303.2 M447.3,306.1l-0.4-0.1c-3.9,9.4-9.3,17.9-16.1,25.6l2,2.9c7.3-8.1,13.1-17.2,17.3-27.2
				L447.3,306.1z M363.5,269.6l38.3,19.7l51.2-13.6l25.2-6.7L363.5,269.6z M450.4,233.1l-3.2,1.4c3.3,8.1,5.5,16.5,6.5,25.2l3.5,0.9
				l0,0C456.3,251,454,241.8,450.4,233.1 M394.2,184.8C394.2,184.8,394.2,184.8,394.2,184.8L394.2,184.8c-3.4-1.3-10.6-3.4-10.6-3.4
				c-1.4-0.4-2.8-0.7-4.5-1c-1.4-0.3-2.7-0.5-4.1-0.7l-0.4-0.1c-1.3-0.2-2.6-0.3-3.9-0.5l-0.7-0.1c-0.3,0-0.5,0-0.8-0.1l12.2,47
				l38.2-26.1C412,193.5,403.5,188.4,394.2,184.8 M398.2,180.9l-1.3,3.2c8.8,3.7,16.9,8.6,24.2,14.8l3-2
				C416.3,190.2,407.6,184.8,398.2,180.9 M360.8,264.5l19.3-37.3l-12.6-48.3h0l-1.6-6l-5.7-21.9L360.8,264.5z M351,174
				c-9.2,1-18.1,3.2-26.6,6.7l0.3,0.7l1.1,2.6c7.8-3.2,16-5.4,24.3-6.4l0.7-2.8L351,174z M276.2,236.7c-1.3,3.4-2.5,7-3.5,10.7
				c0,0-0.7,2.8-0.9,4.2l-0.1,0.4c-0.2,1.2-0.5,2.5-0.7,3.7l-0.1,0.8c-0.1,1-0.3,1.9-0.4,2.9l46.4-12.2l-25.1-36.6
				C285.2,218.5,279.9,227.2,276.2,236.7 M274,233.6l1.4,0.6c3.8-9,9-17.4,15.4-24.9l-2-3c-7,7.9-12.5,16.8-16.6,26.5L274,233.6z
				 M242.1,268.7l21.8-0.1h0l92.2-0.4l-38-19.4l-47.8,12.5l-7,1.8v0L242.1,268.7z M398.2,353.4c8.5-3.8,16.3-8.7,23.2-14.9
				l-39.6-26.2l-12.2,48.6C379.6,360,389.2,357.5,398.2,353.4 M429.6,339.2L429.6,339.2l-3.7-3.6l0,0l0,0l-2.3-2.3l-27.3-27.1
				l-32.8-32.6l18.6,36.9l40.8,27l0.5,0.3l0,0l0.5,0.3l14.1,9.3L429.6,339.2z M445.1,233.7c-4.1-9.4-9.6-17.9-16.6-25.5L402.8,247
				l49.1,12.2C450.9,250.4,448.6,241.8,445.1,233.7L445.1,233.7z M429,200.2l-3.6,3.6l-38.3,38.7v0l-22.8,23.1l34.8-17.9l1.7-0.9
				l36.6-55.2L429,200.2z M324,186.6L324,186.6c-8.3,3.7-16.1,8.7-23,14.8l36.9,24.8l11.8-46.7C340.8,180.5,332.2,182.9,324,186.6
				 M283.1,191.7l9.5,9.4l3.4,3.4l0.6,0.6l4.1,4h0l24.2,24.1l31.8,31.6L337.8,228l-38.6-25.9l0,0l-17.2-11.6L283.1,191.7z
				 M278.3,308.1L278.3,308.1c0.1,0.3,0.3,0.5,0.4,0.8c0.2,0.3,0.3,0.7,0.5,1l0,0c3.4,6.9,7.6,13.4,12.6,19.3l25.3-38.1l-46.6-11.8
				C271.4,289.2,274,299,278.3,308.1 M235.1,270l-0.1-1.2l0.3-0.1l0,0h0.1l28-7.3v0c0-0.3,0-0.6,0.1-0.9l0.1-0.6
				c0.1-1.4,0.3-2.9,0.5-4.3l0.1-0.3c0.2-1.5,0.5-3,0.8-4.6c1.1-5.7,2.8-11.3,5-16.7l0,0l0.3-0.8l0.3-0.8l0,0
				c4.2-10,10-19.2,17.2-27.3l-13.5-19.7l0.3-0.3c0-0.1,0.1-0.2,0.2-0.3l0.5-0.6l19.9,13.4c8-7.3,17.1-13.2,27.1-17.5l0,0l0.8-0.3
				l0.8-0.3l0,0c8.8-3.6,18.1-6,27.7-6.9l7-27.7l0.1-0.4l0-0.3l0.1,0l0-0.1l0.2,0l1.2-0.1l0.1,0.3l0,0v0.1l7.2,27.8
				c1.1,0.1,2.2,0.1,3.2,0.2l0.8,0.1c1.4,0.1,2.8,0.3,4.1,0.5l0.5,0.1c1.5,0.2,2.9,0.5,4.3,0.8l0.3,0.1c1.5,0.3,3,0.6,4.6,1.1
				c1.5,0.4,3,0.8,4.6,1.3c2.4,0.7,4.8,1.6,7.3,2.6l0,0l0.8,0.3l0.8,0.3l0,0c9.7,4,18.7,9.6,26.7,16.6l17.1-11.7l0.3,0.3
				c0.1,0,0.2,0.1,0.3,0.2l0.6,0.5l-11.5,17.3c8,8.4,14.3,18,18.9,28.5l0,0l0.3,0.8l0.3,0.8l0,0c3.8,9.1,6.1,18.6,7,28.5l25.4,6.3
				l0.4,0.1l0.3,0l0,0.1l0,0l0,0.2l0.1,1.2l-0.3,0.1l0,0h-0.1l-25.5,6.8c-0.1,1.2-0.1,2.5-0.3,3.7l-0.1,0.5
				c-0.2,1.5-0.3,2.9-0.6,4.6c-1.1,7.4-3.1,14.7-5.9,21.7l0,0l-0.3,0.8c0,0,0,0,0,0l-0.3,0.8l0,0c-4.3,10.3-10.3,19.7-17.9,28
				l11.5,16.7l-0.3,0.3c0,0.1-0.1,0.2-0.2,0.3l-0.5,0.6l-17-11.3c-8.1,7.4-17.3,13.3-27.3,17.7l0,0l-0.8,0.3l-0.8,0.3l0,0
				c-9.7,4-20,6.4-30.5,7.1l-6.3,25.2l-0.1,0.4l0,0.3l-0.1,0l0,0.1l-0.2,0L360,394l-0.1-0.3l0,0l0-0.1l-6.9-25.7l-0.2,0
				c-0.4,0-0.8,0-1.2-0.1l-0.6-0.1c-1.4-0.2-2.9-0.3-4.3-0.5l-0.3,0c-1.5-0.2-3.1-0.5-4.6-0.8c-5.7-1.1-11.4-2.9-16.9-5.1l0,0
				l-0.8-0.3l-0.8-0.3l0,0c-10.5-4.4-20-10.5-28.4-18.2l-18.9,13.1l-0.3-0.4c-0.1,0-0.2,0-0.3-0.1l-0.6-0.5l12.9-19.4
				c-6.9-7.8-12.6-16.6-16.7-26.2l0,0l-0.3-0.8l-0.3-0.8l0,0c-3.9-9.5-6.3-19.5-7.1-29.9l-27.6-7l-0.4-0.1l-0.3,0l0-0.1l-0.1,0
				L235.1,270z"/>
		</g>
	</g>
	<g class="st0">
		<defs>
			<path id="SVGID_9_" d="M161.3,119.3l81.5,70.1l237,0.4l79.1-70.3C529.2,75.6,444.2,13.7,358.2,13.7
				C225,13.7,161.3,119.3,161.3,119.3"/>
		</defs>
		<clipPath id="SVGID_10_">
			<use xlink:href="#SVGID_9_"  style="overflow:visible;"/>
		</clipPath>
		<path class="st6" d="M362.1,71.6c-63.4,0-125,30.5-164.9,88.5l42.2,33c26-38.3,71.6-66,120.2-65.7c51.5,0.4,91.4,23.4,121.2,63
			l42-34.7C482.1,100.1,423.2,71.6,362.1,71.6"/>
		<path class="st7" d="M359.8,39.2C281.1,39.2,215.4,81,168.9,141l29.2,19c40.8-60.7,109.5-88.1,161.7-88.1
			c61.1,0,124.7,29.4,163.8,85.7l25.7-19.4C504.9,76.2,439.8,39.2,359.8,39.2"/>
		<g class="st8">
			<text transform="matrix(0.7211 -0.7668 0.7285 0.685 208.8452 132.447)" class="st9 st10 st11">L</text>
		</g>
		<g class="st8">
			<text transform="matrix(0.7669 -0.721 0.6849 0.7286 216.6041 124.1667)" class="st9 st10 st11">E</text>
		</g>
		<g class="st8">
			<text transform="matrix(0.7992 -0.685 0.6508 0.7593 225.0546 116.217)" class="st9 st10 st11">A</text>
		</g>
		<g class="st8">
			<text transform="matrix(0.8395 -0.6351 0.6033 0.7975 234.9303 107.8797)" class="st9 st10 st11">R</text>
		</g>
		<g class="st8">
			<text transform="matrix(0.8851 -0.5698 0.5413 0.8409 245.3499 100.0213)" class="st9 st10 st11">N</text>
		</g>
		<g class="st8">
			<text transform="matrix(0.91 -0.5291 0.5027 0.8645 256.8027 92.7105)" class="st9 st10 st11">I</text>
		</g>
		<g class="st8">
			<text transform="matrix(0.9329 -0.4875 0.4631 0.8863 261.962 89.5905)" class="st9 st10 st11">N</text>
		</g>
		<g class="st8">
			<text transform="matrix(0.9606 -0.4306 0.409 0.9125 274.1256 83.2618)" class="st9 st10 st11">G</text>
		</g>
		<g class="st8">
			<text transform="matrix(0.9355 -0.3534 0.3534 0.9355 286.8153 78.1113)" class="st9 st10 st12"> </text>
		</g>
		<g class="st8">
			<text transform="matrix(0.9505 -0.3107 0.3107 0.9505 292.9219 73.6235)" class="st9 st10 st13">•</text>
		</g>
		<g class="st8">
			<text transform="matrix(0.9636 -0.2673 0.2673 0.9636 304.6036 71.8653)" class="st9 st10 st12"> </text>
		</g>
		<g class="st8">
			<text transform="matrix(1.0224 -0.2504 0.2379 0.9713 311.3398 69.5731)" class="st9 st10 st11">I</text>
		</g>
		<g class="st8">
			<text transform="matrix(1.0328 -0.2034 0.1932 0.9812 317.1768 68.0445)" class="st9 st10 st11">N</text>
		</g>
		<g class="st8">
			<text transform="matrix(1.0433 -0.1395 0.1326 0.9912 330.6499 65.4409)" class="st9 st10 st11">N</text>
		</g>
		<g class="st8">
			<text transform="matrix(1.051 -5.803887e-02 5.513471e-02 0.9985 344.3936 63.6626)" class="st9 st10 st11">O</text>
		</g>
		<g class="st8">
			<text transform="matrix(1.0526 8.574993e-03 -8.147472e-03 1 358.52 62.9478)" class="st9 st10 st11">V</text>
		</g>
		<g class="st8">
			<text transform="matrix(1.0499 7.623008e-02 -7.241685e-02 0.9974 369.8672 63.06)" class="st9 st10 st11">A</text>
		</g>
		<g class="st8">
			<text transform="matrix(1.043 0.142 -0.1349 0.9909 381.6006 63.9151)" class="st9 st10 st11">T</text>
		</g>
		<g class="st8">
			<text transform="matrix(1.0353 0.1902 -0.1806 0.9835 393.0908 65.5308)" class="st9 st10 st11">I</text>
		</g>
		<g class="st8">
			<text transform="matrix(1.0256 0.2372 -0.2253 0.9743 399.0399 66.5332)" class="st9 st10 st14">O</text>
		</g>
		<g class="st8">
			<text transform="matrix(1.005 0.3131 -0.2975 0.9547 412.9129 69.7551)" class="st9 st10 st11">N</text>
		</g>
		<g class="st8">
			<text transform="matrix(0.9407 0.3394 -0.3394 0.9407 425.7216 74.2314)" class="st9 st10 st15"> </text>
		</g>
		<g class="st8">
			<text transform="matrix(0.9249 0.3803 -0.3803 0.9249 433.2392 74.8559)" class="st9 st10 st16">•</text>
		</g>
		<g class="st8">
			<text transform="matrix(0.9074 0.4202 -0.4202 0.9074 443.2248 81.163)" class="st9 st10 st12"> </text>
		</g>
		<g class="st8">
			<text transform="matrix(0.928 0.4968 -0.472 0.8816 450.0803 83.8118)" class="st9 st10 st11">C</text>
		</g>
		<g class="st8">
			<text transform="matrix(0.8979 0.5494 -0.522 0.853 461.8252 90.0674)" class="st9 st10 st17">U</text>
		</g>
		<g class="st8">
			<text transform="matrix(0.8733 0.5877 -0.5583 0.8296 472.6926 96.789)" class="st9 st10 st11">L</text>
		</g>
		<g class="st8">
			<text transform="matrix(0.8379 0.6372 -0.6054 0.796 480.7577 102.2316)" class="st9 st10 st11">T</text>
		</g>
		<g class="st8">
			<text transform="matrix(0.7994 0.6848 -0.6506 0.7594 490.0974 109.2873)" class="st9 st10 st11">U</text>
		</g>
		<g class="st8">
			<text transform="matrix(0.7579 0.7305 -0.6939 0.72 499.9143 117.6683)" class="st9 st10 st11">R</text>
		</g>
		<g class="st8">
			<text transform="matrix(0.7248 0.7633 -0.7251 0.6886 509.0808 126.584)" class="st9 st10 st11">E</text>
		</g>
		<g class="st8">
			<text transform="matrix(0.7057 -0.7085 0.7702 0.767 235.0454 169.8747)" class="st9 st18 st19">E</text>
		</g>
		<g class="st8">
			<text transform="matrix(0.7658 -0.6431 0.699 0.8324 245.105 159.7224)" class="st9 st18 st20">M</text>
		</g>
		<g class="st8">
			<text transform="matrix(0.8278 -0.561 0.6098 0.8998 259.0914 147.4693)" class="st9 st18 st19">P</text>
		</g>
		<g class="st8">
			<text transform="matrix(0.8671 -0.4982 0.5415 0.9425 270.2179 139.9814)" class="st9 st18 st20">L</text>
		</g>
		<g class="st8">
			<text transform="matrix(0.9022 -0.4314 0.4689 0.9806 280.3218 134.1271)" class="st9 st18 st19">O</text>
		</g>
		<g class="st8">
			<text transform="matrix(0.9329 -0.3602 0.3915 1.014 294.201 127.0358)" class="st9 st18 st19">Y</text>
		</g>
		<g class="st8">
			<text transform="matrix(0.9587 -0.2843 0.309 1.0421 308.4921 120.372)" class="st9 st18 st19">E</text>
		</g>
		<g class="st8">
			<text transform="matrix(0.9791 -0.2035 0.2212 1.0642 322.7597 115.7939)" class="st9 st18 st19">E</text>
		</g>
		<g class="st8">
			<text transform="matrix(0.9908 -0.1354 0.1472 1.0769 336.2227 112.3155)" class="st9 st10 st19"> </text>
		</g>
		<g class="st8">
			<text transform="matrix(0.9979 -6.433453e-02 6.993222e-02 1.0847 344.7202 111.2539)" class="st9 st18 st19">D</text>
		</g>
		<g class="st8">
			<text transform="matrix(0.9997 2.292168e-02 -2.491640e-02 1.0867 360.5298 110.3618)" class="st9 st18 st19">E</text>
		</g>
		<g class="st8">
			<text transform="matrix(0.9951 9.870143e-02 -0.1073 1.0817 373.9385 110.7617)" class="st9 st18 st19">V</text>
		</g>
		<g class="st8">
			<text transform="matrix(0.9821 0.1883 -0.2046 1.0675 387.2119 112.1533)" class="st9 st18 st19">E</text>
		</g>
		<g class="st8">
			<text transform="matrix(0.969 0.2471 -0.2686 1.0533 401.5372 114.5703)" class="st9 st18 st19">L</text>
		</g>
		<g class="st8">
			<text transform="matrix(0.9426 0.3338 -0.3629 1.0246 412.0928 117.5453)" class="st9 st18 st19">O</text>
		</g>
		<g class="st8">
			<text transform="matrix(0.9145 0.4047 -0.4399 0.994 426.8721 123.5196)" class="st9 st18 st19">P</text>
		</g>
		<g class="st8">
			<text transform="matrix(0.8654 0.5011 -0.5447 0.9406 438.5194 130.0998)" class="st9 st18 st19">M</text>
		</g>
		<g class="st8">
			<text transform="matrix(0.8141 0.5807 -0.6312 0.8849 454.0238 139.9454)" class="st9 st18 st19">E</text>
		</g>
		<g class="st8">
			<text transform="matrix(0.7542 0.6566 -0.7137 0.8198 465.594 149.5266)" class="st9 st18 st19">N</text>
		</g>
		<g class="st8">
			<text transform="matrix(0.6978 0.7163 -0.7786 0.7584 477.1413 159.7592)" class="st9 st18 st19">T</text>
		</g>
	</g>
	<g class="st0">
		<defs>
			<path id="SVGID_11_" d="M300.8,269.3c0,11.5,3.2,22.2,8.7,31.4l17.4-10.5c-3.7-6.1-5.8-13.3-5.8-20.9c0-22.4,18.2-40.6,40.6-40.6
				c0,0,0,0,0,0v-20.3c0,0,0,0,0,0C328.1,208.4,300.8,235.7,300.8,269.3"/>
		</defs>
		<clipPath id="SVGID_12_">
			<use xlink:href="#SVGID_11_"  style="overflow:visible;"/>
		</clipPath>
		
			<linearGradient id="SVGID_13_" gradientUnits="userSpaceOnUse" x1="0" y1="432.7337" x2="1" y2="432.7337" gradientTransform="matrix(69.6599 0 0 -69.6599 293.433 30398.707)">
			<stop  offset="0" style="stop-color:#FFFFFF"/>
			<stop  offset="1" style="stop-color:#B1B3B6"/>
		</linearGradient>
		<rect x="300.8" y="208.4" class="st21" width="60.9" height="92.3"/>
	</g>
	<g class="st0">
		<defs>
			<path id="SVGID_14_" d="M321.1,269.3c0-22.4,18.2-40.6,40.6-40.6c22.4,0,40.6,18.2,40.6,40.6c0,22.4-18.2,40.6-40.6,40.6
				C339.3,309.9,321.1,291.7,321.1,269.3 M300.8,269.3c0,33.6,27.3,60.9,60.9,60.9c32.7,0,59.3-25.7,60.8-58v-5.9
				c-1.5-32.3-28.2-58-60.8-58C328.1,208.4,300.8,235.7,300.8,269.3"/>
		</defs>
		<clipPath id="SVGID_15_">
			<use xlink:href="#SVGID_14_"  style="overflow:visible;"/>
		</clipPath>
		<path class="st22" d="M361.7,269.3l-57.3,34.4c-19-31.7-8.8-72.7,22.9-91.8c10.5-6.3,22.1-9.6,34.4-9.6V269.3z"/>
	</g>
	<g class="st0">
		<defs>
			<path id="SVGID_16_" d="M361.7,309.9c-14.8,0-27.7-7.9-34.8-19.7l-17.4,10.5c10.7,17.7,30.1,29.5,52.2,29.5
				c22.9,0,42.9-12.7,53.3-31.4l-17.8-9.8C390.3,301.5,377,309.9,361.7,309.9"/>
		</defs>
		<clipPath id="SVGID_17_">
			<use xlink:href="#SVGID_16_"  style="overflow:visible;"/>
		</clipPath>
		
			<linearGradient id="SVGID_18_" gradientUnits="userSpaceOnUse" x1="0" y1="432.2338" x2="1" y2="432.2338" gradientTransform="matrix(119.601 0 0 -119.601 302.4769 52005.1836)">
			<stop  offset="0" style="stop-color:#B1B3B6"/>
			<stop  offset="1" style="stop-color:#FFFFFF"/>
		</linearGradient>
		<rect x="309.5" y="289" class="st23" width="105.5" height="41.2"/>
	</g>
	<g class="st0">
		<defs>
			<path id="SVGID_19_" d="M321.1,269.3c0-22.4,18.2-40.6,40.6-40.6c22.4,0,40.6,18.2,40.6,40.6c0,22.4-18.2,40.6-40.6,40.6
				C339.3,309.9,321.1,291.7,321.1,269.3 M300.8,269.3c0,33.6,27.3,60.9,60.9,60.9c32.7,0,59.3-25.7,60.8-58v-5.9
				c-1.5-32.3-28.2-58-60.8-58C328.1,208.4,300.8,235.7,300.8,269.3"/>
		</defs>
		<clipPath id="SVGID_20_">
			<use xlink:href="#SVGID_19_"  style="overflow:visible;"/>
		</clipPath>
		<path class="st24" d="M361.7,269.3l58.5,32.4c-17.9,32.3-58.6,44-90.9,26.1c-10.8-6-18.6-13.5-24.9-24L361.7,269.3z"/>
	</g>
	<g class="st0">
		<defs>
			<path id="SVGID_21_" d="M361.7,228.7c22.4,0,40.6,18.2,40.6,40.6c0,7.1-1.8,13.9-5.1,19.7l17.8,9.8c4.4-7.9,7.1-17,7.6-26.6v-5.9
				c-1.5-32.3-28.2-58-60.8-58V228.7z"/>
		</defs>
		<clipPath id="SVGID_22_">
			<use xlink:href="#SVGID_21_"  style="overflow:visible;"/>
		</clipPath>
		
			<linearGradient id="SVGID_23_" gradientUnits="userSpaceOnUse" x1="0" y1="431.9771" x2="1" y2="431.9771" gradientTransform="matrix(96.5172 45.0067 45.0067 -96.5172 -19096.0254 41925.2539)">
			<stop  offset="0" style="stop-color:#FFFFFF"/>
			<stop  offset="1" style="stop-color:#B1B3B6"/>
		</linearGradient>
		<polygon class="st25" points="372.6,185.1 457.2,224.5 411.7,322.1 327.1,282.7 		"/>
	</g>
	<g class="st0">
		<defs>
			<path id="SVGID_24_" d="M321.1,269.3c0-22.4,18.2-40.6,40.6-40.6c22.4,0,40.6,18.2,40.6,40.6c0,22.4-18.2,40.6-40.6,40.6
				C339.3,309.9,321.1,291.7,321.1,269.3 M300.8,269.3c0,33.6,27.3,60.9,60.9,60.9c32.7,0,59.3-25.7,60.8-58v-5.9
				c-1.5-32.3-28.2-58-60.8-58C328.1,208.4,300.8,235.7,300.8,269.3"/>
		</defs>
		<clipPath id="SVGID_25_">
			<use xlink:href="#SVGID_24_"  style="overflow:visible;"/>
		</clipPath>
		<path class="st26" d="M361.7,269.3v-66.9c36.9,0,66.9,29.9,66.9,66.9c0,12.3-2.4,21.7-8.4,32.4L361.7,269.3z"/>
	</g>
	<g class="st0">
		<text transform="matrix(1 0 0 1 220.877 247.2598)" class="st9 st27 st28">CORE</text>
	</g>
	<g class="st0">
		<text transform="matrix(1 0 0 1 309.7026 376.5322)" class="st9 st27 st28">COMMON</text>
	</g>
	<g class="st0">
		<text transform="matrix(1 0 0 1 442.2676 247.2598)" class="st9 st27 st28">LEADERSHIP</text>
	</g>
</g>
</svg>
