<?xml version="1.0" encoding="utf-8"?>
<!-- Generator: Adobe Illustrator 23.0.6, SVG Export Plug-In . SVG Version: 6.00 Build 0)  -->
<svg version="1.1" id="Layer_1" xmlns="http://www.w3.org/2000/svg" xmlns:xlink="http://www.w3.org/1999/xlink" x="0px" y="0px"
	 viewBox="0 0 136 111" style="enable-background:new 0 0 136 111;" xml:space="preserve">
<style type="text/css">
	.st0{clip-path:url(#SVGID_6_);fill:#144069;}
	.st1{clip-path:url(#SVGID_6_);fill:none;stroke:#FFFFFF;stroke-width:1.629;stroke-miterlimit:10;}
	.st2{clip-path:url(#SVGID_6_);fill:#F57F29;}
	.st3{clip-path:url(#SVGID_6_);fill:#87A3D5;}
	.st4{fill:#144069;}
	.st5{font-family:sans-serif;}
	.st6{font-size:12.6183px;}
	.st7{fill:#B1B3B6;}
	.st8{clip-path:url(#SVGID_8_);fill:#144069;}
	.st9{clip-path:url(#SVGID_8_);fill:none;stroke:#FFFFFF;stroke-miterlimit:10;}
	.st10{clip-path:url(#SVGID_8_);fill:#B1B3B6;}
</style>
<g>
	<defs>
		<rect id="SVGID_1_" x="-559" y="-63" width="720" height="432"/>
	</defs>
	<clipPath id="SVGID_2_">
		<use xlink:href="#SVGID_1_"  style="overflow:visible;"/>
	</clipPath>
</g>
<g>
	<defs>
		<rect id="SVGID_3_" x="-559" y="-63" width="720" height="432"/>
	</defs>
	<clipPath id="SVGID_4_">
		<use xlink:href="#SVGID_3_"  style="overflow:visible;"/>
	</clipPath>
</g>
<g>
	<defs>
		<rect id="SVGID_5_" x="-559" y="-63" width="720" height="432"/>
	</defs>
	<clipPath id="SVGID_6_">
		<use xlink:href="#SVGID_5_"  style="overflow:visible;"/>
	</clipPath>
	<path class="st0" d="M162.5,231.5"/>
	<path class="st0" d="M-37.3,371.3H19"/>
	<path class="st0" d="M162.5,231.5v-58.9"/>
	<path class="st1" d="M-37.3,371.3H19"/>
	<path class="st1" d="M162.5,231.5v-58.9"/>
	<path class="st2" d="M162.5,172.6"/>
	<path class="st2" d="M162.5,172.6v-37.3"/>
	<path class="st1" d="M162.5,172.6v-37.3"/>
	<path class="st3" d="M-74.9,371.3h37.5"/>
	<path class="st1" d="M-74.9,371.3h37.5"/>
	<path class="st0" d="M162.5,231.5"/>
	<path class="st0" d="M-37.3,371.3H19"/>
	<path class="st0" d="M162.5,231.5v-58.9"/>
	<path class="st1" d="M-37.3,371.3H19"/>
	<path class="st1" d="M162.5,231.5v-58.9"/>
	<path class="st3" d="M162.5,172.6"/>
	<path class="st3" d="M162.5,172.6v-37.3"/>
	<path class="st1" d="M162.5,172.6v-37.3"/>
	<path class="st3" d="M-74.9,371.3h37.5"/>
	<path class="st1" d="M-74.9,371.3h37.5"/>
	<path class="st0" d="M162.5,231.5"/>
	<path class="st0" d="M-37.3,371.3H19"/>
	<path class="st0" d="M162.5,231.5v-58.9"/>
	<path class="st1" d="M-37.3,371.3H19"/>
	<path class="st1" d="M162.5,231.5v-58.9"/>
	<path class="st3" d="M162.5,172.6"/>
	<path class="st3" d="M162.5,172.6v-37.3"/>
	<path class="st1" d="M162.5,172.6v-37.3"/>
	<path class="st2" d="M-74.9,371.3h37.5"/>
	<path class="st1" d="M-74.9,371.3h37.5"/>
</g>
<text transform="matrix(1 0 0 1 5.8145 37.4648)" class="st4 st5 st6">CORE</text>
<text transform="matrix(1 0 0 1 72.6396 53.105)" class="st7 st5 st6">COMMON</text>
<text transform="matrix(1 0 0 1 37.8682 98.8237)" class="st7 st5 st6">LEADERSHIP</text>
<g>
	<defs>
		<rect id="SVGID_7_" x="-559" y="-63" width="720" height="432"/>
	</defs>
	<clipPath id="SVGID_8_">
		<use xlink:href="#SVGID_7_"  style="overflow:visible;"/>
	</clipPath>
	<path class="st8" d="M48.3,29.2c-3.9-10.8-15.9-16.4-26.8-12.3c0,0,0,0,0,0L18,7.1c0,0,0,0,0,0c16.3-6,34.3,2.2,40.2,18.5
		c2,5.5,2.4,11.3,1.3,16.7l-10.3-1.9C49.9,36.8,49.7,32.9,48.3,29.2"/>
	<path class="st9" d="M48.3,29.2c-3.9-10.8-15.9-16.4-26.8-12.3c0,0,0,0,0,0L18,7.1c0,0,0,0,0,0c16.3-6,34.3,2.2,40.2,18.5
		c2,5.5,2.4,11.3,1.3,16.7l-10.3-1.9C49.9,36.8,49.7,32.9,48.3,29.2z"/>
	<path class="st10" d="M116.1,89.1c-3.6-10.9-15.3-16.8-26.2-13.2c-0.1,0-0.1,0-0.2,0.1c0,0,0,0,0,0L86.5,66c0,0,0,0,0,0
		c16.5-5.5,34.2,3.3,39.6,19.7c1.8,5.6,2,11.4,0.8,16.8l-10.2-2.2C117.5,96.7,117.4,92.8,116.1,89.1"/>
	<path class="st9" d="M116.1,89.1c-3.6-10.9-15.3-16.8-26.2-13.2c-0.1,0-0.1,0-0.2,0.1c0,0,0,0,0,0L86.5,66c0,0,0,0,0,0
		c16.5-5.5,34.2,3.3,39.6,19.7c1.8,5.6,2,11.4,0.8,16.8l-10.2-2.2C117.5,96.7,117.4,92.8,116.1,89.1z"/>
	<path class="st10" d="M76.1,66.7c3.6,0.7,7.2,0.4,10.4-0.7l3.2,9.9C84.8,77.6,79.5,78,74.1,77c-17-3.2-28.1-19.5-24.9-36.6
		l10.3,1.9C57.3,53.7,64.7,64.6,76.1,66.7"/>
	<path class="st9" d="M76.1,66.7c3.6,0.7,7.2,0.4,10.4-0.7l3.2,9.9C84.8,77.6,79.5,78,74.1,77c-17-3.2-28.1-19.5-24.9-36.6l10.3,1.9
		C57.3,53.7,64.7,64.6,76.1,66.7z"/>
</g>
<g>
	<defs>
		<rect id="SVGID_9_" x="-559" y="-63" width="720" height="432"/>
	</defs>
	<clipPath id="SVGID_10_">
		<use xlink:href="#SVGID_9_"  style="overflow:visible;"/>
	</clipPath>
</g>
</svg>
